<svg width="43" height="158" viewBox="0 0 43 158" fill="none" xmlns="http://www.w3.org/2000/svg">
<path opacity="0.5" d="M4.05274 0.485993C2.66992 0.789265 -0.441264 8.42603 0.0526011 13.986C0.546466 19.546 2.05274 25.986 4.55274 35.986C5.54047 48.5718 14.0527 69.9182 16.5527 87.4182C19.9183 107.918 22.5527 132.486 22.5527 132.486C22.5527 132.486 15.6381 142.853 16.5527 148.486C16.5527 150.508 15.9796 154.185 17.4612 155.701C18.9428 157.217 19.4367 156.712 20.9183 156.712C22.1035 156.611 23.2888 156.813 24.3753 157.217C25.8569 157.723 27.3385 158.228 28.8201 157.723C30.3017 157.217 32.2771 157.723 33.2649 157.723H37.2158C39.1912 157.723 39.6851 157.723 40.179 156.712C40.6728 155.701 42.5527 150.997 42.5527 149.986C42.5527 148.975 40.0343 138.991 38.5527 138.486C38.5527 137.486 37.127 140.628 35.0527 127.486C33.1267 115.305 26.0343 98.0034 24.5527 82.486C22.923 65.1994 18.1392 47.2739 17.0527 34.486C16.9046 32.9191 18.1515 24.4013 18.0527 22.986C17.707 19.2962 16.8491 15.9122 16.5527 13.486C19.0527 6.98597 15.5527 1.48598 15.5527 1.48598C13.0834 1.48598 10.9668 -1.03037 4.05274 0.485993Z" fill="#63F3EC"/>
</svg>
