<svg width="43" height="158" viewBox="0 0 43 158" fill="none" xmlns="http://www.w3.org/2000/svg">
<path opacity="0.5" d="M38.5 0.485993C39.8828 0.789265 42.994 8.42603 42.5001 13.986C42.0063 19.546 40.5 25.986 38 35.986C37.0123 48.5718 28.5 69.9182 26 87.4182C22.6345 107.918 20 132.486 20 132.486C20 132.486 26.9146 142.853 26 148.486C26 150.508 26.5731 154.185 25.0915 155.701C23.6099 157.217 23.1161 156.712 21.6345 156.712C20.4492 156.611 19.2639 156.813 18.1774 157.217C16.6958 157.723 15.2142 158.228 13.7326 157.723C12.2511 157.217 10.2756 157.723 9.28787 157.723H5.33695C3.36149 157.723 2.86763 157.723 2.37376 156.712C1.87989 155.701 0 150.997 0 149.986C0 148.975 2.51841 138.991 4 138.486C4 137.486 5.42577 140.628 7.5 127.486C9.42607 115.305 16.5184 98.0034 18 82.486C19.6298 65.1994 24.4135 47.2739 25.5 34.486C25.6482 32.9191 24.4012 24.4013 24.5 22.986C24.8457 19.2962 25.7037 15.9122 26 13.486C23.5 6.98597 27 1.48598 27 1.48598C29.4693 1.48598 31.5859 -1.03037 38.5 0.485993Z" fill="#63F3EC"/>
</svg>
