<svg width="23" height="140" viewBox="0 0 23 140" fill="none" xmlns="http://www.w3.org/2000/svg">
<path opacity="0.5" d="M9.56566 137.793C11.0438 137.793 13.0147 139.369 14.0001 139.894C14.9855 140.42 15.4782 138.844 15.4782 138.318C15.4782 137.583 15.3304 136.847 14.9855 136.217C14.4928 135.166 13.5074 134.115 13.5074 131.488C13.5074 128.862 14.4928 87.8831 14.4928 87.8831L15.4782 37.448C15.4782 37.448 15.4782 29.0422 15.9709 25.89C16.4637 22.7378 20.4054 12.7559 21.3908 11.1798C22.3762 9.60368 23.3617 5.40076 22.8689 3.29929C22.3762 1.19783 21.8835 0.147102 19.9127 0.147102C17.9418 0.147102 17.9418 0.672468 15.9709 0.672468H9.56566C8.58023 0.672468 7.10209 -0.378263 4.63852 0.147102C2.17495 0.672468 1.18952 1.19783 0.696803 2.24856C0.204089 3.29929 -0.288625 4.35002 0.204089 5.92612C0.696803 7.50222 1.68223 10.6544 2.66766 12.2305C3.8009 14.0167 4.58925 15.9606 5.13123 18.0095C5.62395 20.111 6.60937 22.7378 6.60937 24.8393C6.60937 26.9407 7.5948 36.3973 7.5948 39.5495C7.5948 42.7017 8.08752 68.97 8.08752 68.97L7.5948 105.746L7.10209 121.506C7.10209 121.506 6.60937 132.014 6.11666 133.59C5.62395 135.166 4.63852 135.691 4.1458 136.217C3.65309 136.742 3.16037 137.793 3.65309 138.318C4.1458 138.844 4.63852 138.844 6.11666 138.318C7.20063 137.898 8.38315 137.688 9.56566 137.793Z" fill="#63F3EC"/>
</svg>
