<svg width="23" height="139" viewBox="0 0 23 139" fill="none" xmlns="http://www.w3.org/2000/svg">
<path opacity="0.5" d="M13.4836 137.727C12.0055 137.727 8.5072 138.782 8.06376 138.255C7.62031 137.727 7.52177 137.727 8.01448 136.673C8.5072 135.619 9.49263 134.565 9.49263 131.929C9.49263 129.293 8.5072 88.1776 8.5072 88.1776L7.52177 37.5735C7.52177 37.5735 7.52177 29.1395 7.02906 25.9768C6.53634 22.814 2.59463 12.7986 1.6092 11.2172C0.62377 9.63586 -0.361659 5.41885 0.131055 3.31035C0.62377 1.20185 1.11648 0.147595 3.08734 0.147595C5.0582 0.147595 5.0582 0.674721 7.02906 0.674721H13.4343C14.4198 0.674721 15.8979 -0.379531 18.3615 0.147595C20.8251 0.674721 21.8105 1.20185 22.3032 2.2561C22.7959 3.31035 23.2886 4.3646 22.7959 5.94598C22.3032 7.52736 21.3178 10.6901 20.3323 12.2715C19.1991 14.0637 18.4108 16.0141 17.8688 18.0699C17.3761 20.1784 16.3906 22.814 16.3906 24.9225C16.3906 27.031 15.4052 36.5193 15.4052 39.682C15.4052 42.8448 14.9125 69.2011 14.9125 69.2011L15.4052 106.1L15.8979 121.914C15.8979 121.914 16.3906 132.456 16.8833 134.038C17.3761 135.619 17.918 135.619 18.4108 136.146C18.9035 136.726 18.9035 137.675 18.4108 138.255C17.918 138.782 18.3615 139.309 16.8833 138.782C15.4052 138.255 14.9618 137.727 13.4836 137.727Z" fill="#63F3EC"/>
</svg>
