<svg width="43" height="67" viewBox="0 0 43 67" fill="none" xmlns="http://www.w3.org/2000/svg">
<path d="M18.1211 2.5C18.5211 1.7 16.9545 0.5 16.1211 0C14.9545 0.833333 12.1213 2.6 10.1213 3C7.62134 3.5 2.12134 2.5 0.621338 4.5C-0.878662 6.5 0.621338 6.5 2.12134 8C3.62134 9.5 2.12134 11.5 2.12134 13C2.12134 14.5 3.12134 16.5 3.62134 17C4.12134 17.5 4.12134 29 3.62134 30.5C3.12134 32 4.12134 34.5 5.12134 35.5C6.12134 36.5 6.12134 43 6.62134 44.5C7.12134 46 10.6213 51 11.6213 51.5C12.4213 51.9 11.6213 48.3333 11.1213 46.5L10.6213 45C10.4547 44.3333 9.92134 42.7 9.12134 41.5C8.32134 40.3 8.12134 36 8.12134 34C7.95467 32.5 7.62134 29.4 7.62134 29C7.62134 28.5 7.12134 19 7.12134 18C7.12134 17 7.62134 17 8.12134 17C8.62134 17 9.62134 27.5 9.62134 29C9.62134 30.5 9.62134 33 10.6213 34.5C11.6213 36 12.1213 42 12.6213 44C13.1213 46 13.1213 46.5 13.6213 48C14.1213 49.5 15.1213 55 15.6213 56C16.1213 57 20.6213 60.5 21.1213 60C21.6213 59.5 19.6213 56 19.1213 55.5C18.6213 55 18.1211 53.5 18.6213 53C19.1215 52.5 17.1213 50 16.6213 49C16.2213 48.2 15.788 45.6667 15.6213 44.5V42.5C15.6213 41.5 14.1213 38 13.6213 36.5C13.2213 35.3 13.1213 34.3333 13.1213 34C13.4547 33.5 14.1213 32.4 14.1213 32C14.1213 31.5 12.6213 27 12.6213 26C12.6213 25 11.6213 16.5 11.6213 15.5C11.6213 14.5 11.6213 15 13.1213 15.5C14.6213 16 15.6213 31 15.6213 32C15.6213 32.8 16.9547 34.6667 17.6213 35.5C17.9547 37.6667 18.6213 42.3 18.6213 43.5C18.6213 44.7 19.288 45.6667 19.6213 46L22.6213 57.5C23.288 59.5 24.8213 63.7 25.6213 64.5C26.6213 65.5 26.6213 66.5 27.6213 66.5C28.6213 66.5 27.6213 63.5 27.6213 62.5C27.6213 61.7 26.6213 58.5 26.1213 57V55L24.6213 51.5L23.6209 47.5L22.6213 44.5V43L20.6213 36L20.1213 33V30C20.1213 29.2 18.7879 25.3333 18.1211 23.5L16.6213 15.5L17.6213 15H18.1211C18.9545 18.5 20.6213 25.7 20.6213 26.5C20.6213 27.3 21.6213 29.1667 22.1213 30L24.1213 35L25.6213 40.5L29.1213 50.5L33.6209 58C33.7877 58 34.2213 57.9 34.6213 57.5C35.0213 57.1 33.7877 53.3333 33.1209 51.5C32.9544 51 32.6213 49.9 32.6213 49.5C32.6213 49 30.1213 42 29.6213 41C29.1213 40 28.6213 39.5 28.6213 38.5C28.6213 37.5 26.1213 32 26.1213 30.5C26.1213 29 25.6213 29.5 25.6213 29C25.6213 28.6 22.9544 19.5 21.6209 15L22.1213 13.5L31.1213 21L41.6213 32C41.6212 31.8333 41.7209 31.3 42.1209 30.5C42.5209 29.7 40.2875 26.5 39.1209 25L33.6209 19C33.4542 18.5 33.1209 17.4 33.1209 17C33.1209 16.6 26.7875 12.1667 23.6209 10C23.2875 9.16667 22.4209 7.3 21.6209 6.5C20.8209 5.7 18.9544 4.83333 18.1211 4.5C17.9545 4.16667 17.7211 3.3 18.1211 2.5Z" fill="#63F3EC" fill-opacity="0.7"/>
</svg>
