<svg width="43" height="67" viewBox="0 0 43 67" fill="none" xmlns="http://www.w3.org/2000/svg">
<path d="M24.0471 2.5C23.6471 1.7 25.2138 0.5 26.0471 0C27.2137 0.833333 30.0469 2.6 32.0469 3C34.5469 3.5 40.0469 2.5 41.5469 4.5C43.0469 6.5 41.5469 6.5 40.0469 8C38.5469 9.5 40.0469 11.5 40.0469 13C40.0469 14.5 39.0469 16.5 38.5469 17C38.0469 17.5 38.0469 29 38.5469 30.5C39.0469 32 38.0469 34.5 37.0469 35.5C36.0469 36.5 36.0469 43 35.5469 44.5C35.0469 46 31.5469 51 30.5469 51.5C29.7469 51.9 30.5469 48.3333 31.0469 46.5L31.5469 45C31.7135 44.3333 32.2469 42.7 33.0469 41.5C33.8469 40.3 34.0469 36 34.0469 34C34.2135 32.5 34.5469 29.4 34.5469 29C34.5469 28.5 35.0469 19 35.0469 18C35.0469 17 34.5469 17 34.0469 17C33.5469 17 32.5469 27.5 32.5469 29C32.5469 30.5 32.5469 33 31.5469 34.5C30.5469 36 30.0469 42 29.5469 44C29.0469 46 29.0469 46.5 28.5469 48C28.0469 49.5 27.0469 55 26.5469 56C26.0469 57 21.5469 60.5 21.0469 60C20.5469 59.5 22.5469 56 23.0469 55.5C23.5469 55 24.0471 53.5 23.5469 53C23.0467 52.5 25.0469 50 25.5469 49C25.9469 48.2 26.3802 45.6667 26.5469 44.5V42.5C26.5469 41.5 28.0469 38 28.5469 36.5C28.9469 35.3 29.0469 34.3333 29.0469 34C28.7135 33.5 28.0469 32.4 28.0469 32C28.0469 31.5 29.5469 27 29.5469 26C29.5469 25 30.5469 16.5 30.5469 15.5C30.5469 14.5 30.5469 15 29.0469 15.5C27.5469 16 26.5469 31 26.5469 32C26.5469 32.8 25.2135 34.6667 24.5469 35.5C24.2135 37.6667 23.5469 42.3 23.5469 43.5C23.5469 44.7 22.8802 45.6667 22.5469 46L19.5469 57.5C18.8802 59.5 17.3469 63.7 16.5469 64.5C15.5469 65.5 15.5469 66.5 14.5469 66.5C13.5469 66.5 14.5469 63.5 14.5469 62.5C14.5469 61.7 15.5469 58.5 16.0469 57V55L17.5469 51.5L18.5473 47.5L19.5469 44.5V43L21.5469 36L22.0469 33V30C22.0469 29.2 23.3804 25.3333 24.0471 23.5L25.5469 15.5L24.5469 15H24.0471C23.2137 18.5 21.5469 25.7 21.5469 26.5C21.5469 27.3 20.5469 29.1667 20.0469 30L18.0469 35L16.5469 40.5L13.0469 50.5L8.54734 58C8.38052 58 7.94688 57.9 7.54688 57.5C7.14687 57.1 8.38052 53.3333 9.04734 51.5C9.21385 51 9.54688 49.9 9.54688 49.5C9.54688 49 12.0469 42 12.5469 41C13.0469 40 13.5469 39.5 13.5469 38.5C13.5469 37.5 16.0469 32 16.0469 30.5C16.0469 29 16.5469 29.5 16.5469 29C16.5469 28.6 19.2139 19.5 20.5473 15L20.0469 13.5L11.0469 21L0.546875 32C0.547029 31.8333 0.447336 31.3 0.0473362 30.5C-0.352664 29.7 1.88067 26.5 3.04734 25L8.54734 19C8.714 18.5 9.04734 17.4 9.04734 17C9.04734 16.6 15.3807 12.1667 18.5473 10C18.8807 9.16667 19.7473 7.3 20.5473 6.5C21.3473 5.7 23.2138 4.83333 24.0471 4.5C24.2138 4.16667 24.4471 3.3 24.0471 2.5Z" fill="#63F3EC" fill-opacity="0.7"/>
</svg>
