<svg width="24" height="15" viewBox="0 0 24 15" fill="none" xmlns="http://www.w3.org/2000/svg">
<path opacity="0.5" d="M20.4679 0.219495C22.4434 0.71336 23.4311 2.68882 23.4311 4.66428C23.4311 6.63974 24.4189 10.5907 22.9373 12.0722C21.4557 13.5538 20.9618 13.06 19.4802 13.06C18.2949 12.9612 17.1097 13.1588 16.0232 13.5538C14.5416 14.0477 13.06 14.5416 11.5784 14.0477C10.0968 13.5538 8.12133 14.0477 7.1336 14.0477H3.18268C1.20722 14.0477 0.71336 14.0477 0.219495 13.06C-0.274369 12.0722 0.219495 9.10906 0.219495 8.12133C0.219495 7.1336 0.71336 4.17041 2.19495 3.67655C3.67655 3.18268 5.15814 0.219495 7.62747 0.219495C10.0968 0.219495 18.4925 -0.274369 20.4679 0.219495Z" fill="#63F3EC"/>
</svg>
