<svg width="24" height="15" viewBox="0 0 24 15" fill="none" xmlns="http://www.w3.org/2000/svg">
<path opacity="0.5" d="M3.28571 0.219495C1.31025 0.71336 0.322524 2.68882 0.322524 4.66428C0.322524 6.63974 -0.665206 10.5907 0.816389 12.0722C2.29798 13.5538 2.79185 13.06 4.27344 13.06C5.45872 12.9612 6.64399 13.1588 7.73049 13.5538C9.21209 14.0477 10.6937 14.5416 12.1753 14.0477C13.6569 13.5538 15.6323 14.0477 16.6201 14.0477H20.571C22.5464 14.0477 23.0403 14.0477 23.5342 13.06C24.028 12.0722 23.5342 9.10906 23.5342 8.12133C23.5342 7.1336 23.0403 4.17041 21.5587 3.67655C20.0771 3.18268 18.5955 0.219495 16.1262 0.219495C13.6569 0.219495 5.26117 -0.274369 3.28571 0.219495Z" fill="#63F3EC"/>
</svg>
