<svg width="32" height="114" viewBox="0 0 32 114" fill="none" xmlns="http://www.w3.org/2000/svg">
<path opacity="0.5" d="M23.2262 0C22.2385 0 15.7201 1.01228 15.2262 2.00001C13.2262 3 12.2262 7.02454 12.2262 9C12.2262 10.9755 15.2262 17.0061 15.2262 17.5C15.2262 17.9939 12.6587 45.9359 12.6587 45.9359C12.6587 45.9359 9.72666 67 9.72666 70.5C9.72666 74 0.703095 100.286 0.226195 102C-0.250705 103.714 -0.773927 120 7.72619 110.5C7.62742 110.006 14.2262 81 15.2262 71L26.2262 21C26.2262 21 27.7385 14.4755 28.7262 12.5C29.7139 10.5245 32.7139 0.993865 31.7262 0.5C31.1336 0.203681 23.9176 0.0493865 23.2262 0Z" fill="#63F3EC"/>
</svg>
