<svg width="32" height="114" viewBox="0 0 32 114" fill="none" xmlns="http://www.w3.org/2000/svg">
<path opacity="0.5" d="M8.6969 0C9.68463 0 16.203 1.01228 16.6969 2.00001C18.6969 3 19.6969 7.02454 19.6969 9C19.6969 10.9755 16.6969 17.0061 16.6969 17.5C16.6969 17.9939 19.2644 45.9359 19.2644 45.9359C19.2644 45.9359 22.1964 67 22.1964 70.5C22.1964 74 31.22 100.286 31.6969 102C32.1738 103.714 32.697 120 24.1969 110.5C24.2957 110.006 17.6969 81 16.6969 71L5.6969 21C5.6969 21 4.18463 14.4755 3.1969 12.5C2.20917 10.5245 -0.790832 0.993865 0.196898 0.5C0.789535 0.203681 8.00549 0.0493865 8.6969 0Z" fill="#63F3EC"/>
</svg>
