<svg width="39" height="112" viewBox="0 0 39 112" fill="none" xmlns="http://www.w3.org/2000/svg">
<path opacity="0.5" d="M25.5103 0.962636C29.0194 1.74529 31.8922 4.16077 32.0374 6.62581C32.1827 9.09086 32.8782 11.9395 32.0374 14.4626C31.1967 16.9858 30.51 21.4627 28.5101 25.4626C27.7856 29.9578 24.2126 50.0035 24.0101 54.9626C23.8076 59.9218 24.858 79.9685 24.5103 82.4626C24.1625 84.9567 26.0101 90.9626 26.5103 93.4626C27.0104 95.9626 27.3719 99.5266 28.0101 101.963C28.6484 104.399 28.5101 109.463 25.5103 109.963C24.0101 110.463 19.0182 109.869 17.5101 109.463C16.0021 109.057 16.0103 111.463 10.5101 111.463C8.01015 110.463 5.14053 101.993 6.01034 99.9626C6.01034 96.9626 14.0103 89.9626 12.905 84.9297C13.6296 80.4346 12.1779 18.8916 11.5106 15.9626C10.8433 13.0336 14.2995 13.4277 14.1542 10.9626C14.009 8.49758 15.4497 1.60089 17.8857 0.962628C20.3217 0.324361 25.5103 0.962636 25.5103 0.962636Z" fill="#63F3EC"/>
</svg>
