<svg width="39" height="112" viewBox="0 0 39 112" fill="none" xmlns="http://www.w3.org/2000/svg">
<path opacity="0.5" d="M12.7507 0.962636C9.24153 1.74529 6.3688 4.16077 6.22354 6.62581C6.07828 9.09086 5.38278 11.9395 6.22354 14.4626C7.0643 16.9858 7.75098 21.4627 9.75084 25.4626C10.4754 29.9578 14.0483 50.0035 14.2508 54.9626C14.4533 59.9218 13.4029 79.9685 13.7507 82.4626C14.0985 84.9567 12.2508 90.9626 11.7507 93.4626C11.2506 95.9626 10.8891 99.5266 10.2508 101.963C9.61257 104.399 9.75084 109.463 12.7507 109.963C14.2508 110.463 19.2428 109.869 20.7508 109.463C22.2589 109.057 22.2507 111.463 27.7508 111.463C30.2508 110.463 33.1204 101.993 32.2506 99.9626C32.2506 96.9626 24.2506 89.9626 25.356 84.9297C24.6314 80.4346 26.083 18.8916 26.7504 15.9626C27.4177 13.0336 23.9615 13.4277 24.1067 10.9626C24.252 8.49758 22.8113 1.60089 20.3753 0.962628C17.9393 0.324361 12.7507 0.962636 12.7507 0.962636Z" fill="#63F3EC"/>
</svg>
