<svg width="40" height="57" viewBox="0 0 40 57" fill="none" xmlns="http://www.w3.org/2000/svg">
<path opacity="0.5" d="M8.77479 0.0574319C6.77794 0.53484 3.85796 1.45829 2.46588 3.81923C0.449684 7.23076 0.0758743 8.89755 0.268337 11.8561C0.4608 14.8147 -0.490692 17.2957 0.358685 20.8484C1.20806 24.4011 3.54115 29.8525 4.22065 32.6947C4.90015 35.5368 5.45495 42.1646 5.96458 44.2962C6.47421 46.4278 7.8558 54.3602 10.8006 55.9096C13.7454 57.459 24.1205 53.4762 27.0428 52.7776C29.965 52.079 39.0488 49.156 39.8305 45.9646C40.6121 42.7731 35.3116 33.5242 33.171 31.0313C31.0303 28.5385 28.7199 25.3351 25.9223 22.2482C23.1248 19.1612 19.0134 14.8861 17.3373 10.0288C15.6611 5.17144 11.697 -0.641214 8.77479 0.0574319Z" fill="#63F3EC"/>
</svg>
