<svg width="40" height="57" viewBox="0 0 40 57" fill="none" xmlns="http://www.w3.org/2000/svg">
<path opacity="0.5" d="M31.1338 0.0574319C33.1306 0.53484 36.0506 1.45829 37.4427 3.81923C39.4589 7.23076 39.8327 8.89755 39.6402 11.8561C39.4478 14.8147 40.3993 17.2957 39.5499 20.8484C38.7005 24.4011 36.3674 29.8525 35.6879 32.6947C35.0084 35.5368 34.4536 42.1646 33.944 44.2962C33.4344 46.4278 32.0528 54.3602 29.108 55.9096C26.1631 57.459 15.788 53.4762 12.8658 52.7776C9.94357 52.079 0.85972 49.156 0.0781072 45.9646C-0.703506 42.7731 4.59698 33.5242 6.7376 31.0313C8.87822 28.5385 11.1887 25.3351 13.9862 22.2482C16.7838 19.1612 20.8951 14.8861 22.5713 10.0288C24.2475 5.17144 28.2115 -0.641214 31.1338 0.0574319Z" fill="#63F3EC"/>
</svg>
