<svg width="46" height="76" viewBox="0 0 46 76" fill="none" xmlns="http://www.w3.org/2000/svg">
<path opacity="0.5" d="M39 10.7902C35.5393 6.50843 30.4135 0.29016 26.8822 0.29016C23.3508 0.29016 19.1132 -0.815622 14.8756 1.29015C11.5 3.79016 7.20627 8.57862 6.5 12.7902C3.67492 17.5594 0 21.6844 0 23.7902C0 25.8959 9.22543 33.5786 5.69408 37.7902C9.5 41.2902 8.29373 39.8863 9 41.2902C9.70627 42.694 9 45.7902 9.5 49.2902C8 54.7902 8.41254 52.0786 7 56.2902C5.58746 60.5017 7.10662 61.6555 8.51916 65.8671C9.9317 70.0786 12.7568 74.2902 14.8756 74.2902C16.9944 74.2902 24.0875 77.0979 25.5 74.2902C26.9125 71.4825 28 70.7902 30 68.2902C32.1188 67.5882 33.3812 67.0979 35.5 64.2902C37.6188 61.4825 34 54.7902 39 46.2902C39.7063 41.3767 45.2452 44.2902 45.2452 23.7517C45.9515 19.5402 41.8251 14.2998 39 10.7902Z" fill="#63F3EC"/>
</svg>
