<svg width="46" height="76" viewBox="0 0 46 76" fill="none" xmlns="http://www.w3.org/2000/svg">
<path opacity="0.5" d="M6.3252 10.7902C9.78592 6.50843 14.9117 0.29016 18.443 0.29016C21.9744 0.29016 26.212 -0.815622 30.4496 1.29015C33.8252 3.79016 38.1189 8.57862 38.8252 12.7902C41.6503 17.5594 45.3252 21.6844 45.3252 23.7902C45.3252 25.8959 36.0998 33.5786 39.6311 37.7902C35.8252 41.2902 37.0315 39.8863 36.3252 41.2902C35.6189 42.694 36.3252 45.7902 35.8252 49.2902C37.3252 54.7902 36.9127 52.0786 38.3252 56.2902C39.7377 60.5017 38.2186 61.6555 36.806 65.8671C35.3935 70.0786 32.5684 74.2902 30.4496 74.2902C28.3308 74.2902 21.2377 77.0979 19.8252 74.2902C18.4127 71.4825 17.3252 70.7902 15.3252 68.2902C13.2064 67.5882 11.944 67.0979 9.8252 64.2902C7.70639 61.4825 11.3252 54.7902 6.3252 46.2902C5.61893 41.3767 0.0799901 44.2902 0.0799906 23.7517C-0.62628 19.5402 3.50012 14.2998 6.3252 10.7902Z" fill="#63F3EC"/>
</svg>
