<svg width="39" height="21" viewBox="0 0 39 21" fill="none" xmlns="http://www.w3.org/2000/svg">
<path opacity="0.5" d="M5.57776 15.3751C6.56549 16.8567 11.998 20.8076 18.4182 20.8076C24.8385 20.8076 33.2342 16.8567 34.7158 14.3874C36.1974 11.9181 38.9136 8.31284 38.1728 6.48555C37.1851 4.01622 37.679 1.5469 35.7035 0.559169C33.7281 -0.42856 33.2342 2.53463 33.2342 2.53463C33.2342 2.53463 30.7649 9.9426 29.2833 11.4242C27.8017 12.9058 23.8508 13.2021 19.8998 13.3996C15.9489 13.5972 12.9857 12.9058 11.0103 11.9181C9.03482 10.9303 8.54095 10.4365 7.55322 8.95487C6.56549 7.47327 5.57776 2.04076 5.57776 2.04076C5.57776 2.04076 4.09617 -0.42856 2.12071 0.0653044C0.886049 0.361623 1.28114 2.33708 0.639116 4.01622C0.244025 5.00395 -0.24984 7.0288 0.145252 7.96714C1.13298 10.4365 4.59003 13.8935 5.57776 15.3751Z" fill="#63F3EC"/>
</svg>
